<?xml version="1.0" standalone="no"?>
<!DOCTYPE svg PUBLIC "-//W3C//DTD SVG 20010904//EN"
 "http://www.w3.org/TR/2001/REC-SVG-20010904/DTD/svg10.dtd">
<svg version="1.0" xmlns="http://www.w3.org/2000/svg"
 width="256.000000pt" height="256.000000pt" viewBox="0 0 256.000000 256.000000"
 preserveAspectRatio="xMidYMid meet">
<metadata>
Created by potrace 1.14, written by Peter Selinger 2001-2017
</metadata>
<g transform="translate(0.000000,256.000000) scale(0.100000,-0.100000)"
fill="#000000" stroke="none">
<path d="M1266 2549 c-94 -22 -195 -104 -241 -197 -34 -67 -43 -175 -22 -243
l14 -47 -146 1 c-227 1 -315 -17 -398 -80 -60 -46 -76 -65 -110 -133 l-28 -55
-2 -295 c-1 -162 -3 -300 -3 -306 0 -7 -14 -11 -32 -9 -79 6 -193 -54 -244
-128 -87 -128 -64 -315 50 -413 47 -40 132 -74 185 -74 l37 0 -1 -177 c0 -98
3 -198 7 -223 14 -77 85 -142 169 -156 19 -3 183 -7 364 -9 345 -4 348 -4 372
39 14 26 -2 73 -28 81 -34 11 -50 48 -45 102 6 64 18 92 52 125 77 72 190 66
258 -14 61 -71 59 -122 -9 -217 -28 -39 -27 -64 4 -97 l22 -23 312 3 c281 3
318 5 374 23 83 28 117 54 147 116 36 73 45 154 45 375 -1 183 -2 194 -22 213
-30 28 -49 24 -102 -20 -117 -97 -340 -107 -519 -23 -204 96 -288 342 -187
547 55 112 167 201 291 235 73 20 82 21 160 22 93 2 171 -20 238 -67 54 -37
73 -39 110 -13 23 16 23 18 23 228 -1 274 -6 305 -68 361 -61 57 -104 64 -366
63 -217 -2 -238 0 -232 15 52 124 19 274 -82 377 -65 66 -138 97 -232 99 -42
2 -94 -1 -115 -6z m220 -155 c123 -76 141 -248 35 -337 -39 -32 -46 -68 -19
-102 l20 -26 287 1 c363 2 385 -1 412 -53 12 -22 17 -292 6 -303 -3 -3 -15 0
-27 6 -57 30 -254 45 -337 25 -115 -27 -176 -52 -252 -105 -154 -105 -236
-255 -240 -436 -6 -253 158 -467 414 -541 92 -26 321 -25 397 3 l57 20 -1
-135 c0 -136 -12 -207 -40 -234 -38 -38 -58 -41 -306 -42 -134 0 -247 2 -252
5 -5 3 -5 21 -1 40 27 120 -47 267 -163 328 -44 23 -63 27 -136 27 -73 0 -92
-4 -137 -27 -125 -66 -191 -199 -162 -328 4 -19 4 -37 -1 -40 -5 -3 -126 -5
-268 -5 -228 1 -263 3 -286 18 -31 21 -28 -4 -30 291 l-1 238 -25 20 c-18 15
-32 18 -55 13 -16 -4 -55 -8 -86 -9 -47 -1 -61 3 -93 28 -45 34 -68 83 -69
146 -1 122 97 199 217 170 62 -15 102 -8 111 19 3 10 8 164 10 342 6 355 7
379 33 424 19 32 102 80 162 91 19 4 137 7 262 8 210 1 229 3 253 21 39 30 40
62 3 103 -64 74 -75 151 -33 236 63 125 224 173 341 100z"/>
<path d="M1329 1775 c-14 -8 -31 -27 -38 -42 -40 -99 0 -163 103 -163 37 0 48
5 70 31 26 30 30 45 28 104 -1 66 -95 107 -163 70z"/>
<path d="M2227 1315 c-30 -18 -102 -65 -160 -103 l-104 -71 -92 30 c-116 37
-163 38 -189 4 -20 -26 -20 -57 2 -73 17 -12 278 -95 297 -94 27 1 358 225
366 247 12 35 12 45 -5 65 -27 32 -55 31 -115 -5z"/>
</g>
</svg>
